<svg xmlns="http://www.w3.org/2000/svg" viewBox="0 0 64 64"><defs><style>.cls-1{fill:#d0d7dc;}.cls-2{fill:#b2b9bf;}.cls-3{fill:#e4ebf0;}.cls-4{fill:#b5e0f0;}.cls-5{fill:#4ea0ca;}.cls-6{fill:#ffd24f;}.cls-7{fill:#00b39b;}.cls-8{fill:#fc9b28;}.cls-9{fill:#29394a;}</style></defs><title>06-quality</title><g id="_06-quality" data-name="06-quality"><polygon class="cls-1" points="39 53 41 59 23 59 25 53 39 53"/><polygon class="cls-2" points="46 59 46 63 18 63 18 59 23 59 41 59 46 59"/><path class="cls-3" d="M63,47v4a2.006,2.006,0,0,1-2,2H3a2.006,2.006,0,0,1-2-2V47Z"/><path class="cls-4" d="M63,11V47H1V11A2.006,2.006,0,0,1,3,9H61A2.006,2.006,0,0,1,63,11Z"/><polygon class="cls-2" points="39 53 25 53 24 56 40 56 39 53"/><path class="cls-5" d="M61,9H3a2.006,2.006,0,0,0-2,2v1H58a2,2,0,0,1,2,2V47h3V11A2.006,2.006,0,0,0,61,9Z"/><path class="cls-6" d="M51,47H13V1H43l8,8Z"/><rect class="cls-1" x="18" y="36" width="7" height="7"/><rect class="cls-1" x="29" y="36" width="7" height="7"/><rect class="cls-1" x="40" y="36" width="7" height="7"/><circle class="cls-7" cx="51" cy="36" r="7"/><path class="cls-1" d="M45,17v4H41.8a9.832,9.832,0,0,1-1.46,3.51l2.27,2.27-2.83,2.83-2.27-2.27A9.832,9.832,0,0,1,34,28.8V32H30V28.8a9.832,9.832,0,0,1-3.51-1.46l-2.27,2.27-2.83-2.83,2.27-2.27A9.832,9.832,0,0,1,22.2,21H19V17h3.2a9.832,9.832,0,0,1,1.46-3.51l-2.27-2.27,2.83-2.83,2.27,2.27A9.832,9.832,0,0,1,30,9.2V6h4V9.2a9.832,9.832,0,0,1,3.51,1.46l2.27-2.27,2.83,2.83-2.27,2.27A9.832,9.832,0,0,1,41.8,17Zm-8,2a5,5,0,1,0-5,5A5,5,0,0,0,37,19Z"/><path class="cls-8" d="M51,9H45a2.006,2.006,0,0,1-2-2V1Z"/><path class="cls-9" d="M61,8H54v2h7a1,1,0,0,1,1,1V46H52V43.931a8,8,0,1,0-2,0V46H14V2H42V7a3,3,0,0,0,3,3h5V26h2V9a1,1,0,0,0-.293-.707l-8-8A1,1,0,0,0,43,0H13a1,1,0,0,0-1,1V8H3a3,3,0,0,0-3,3V51a3,3,0,0,0,3,3H23.612l-1.333,4H18a1,1,0,0,0-1,1v4a1,1,0,0,0,1,1H46a1,1,0,0,0,1-1V59a1,1,0,0,0-1-1H41.721l-1.333-4H61a3,3,0,0,0,3-3V11A3,3,0,0,0,61,8ZM45,36a6,6,0,1,1,6,6A6.006,6.006,0,0,1,45,36ZM44,7V3.414L48.586,8H45A1,1,0,0,1,44,7ZM3,10h9V46H2V11A1,1,0,0,1,3,10ZM25.721,54H38.279l1.334,4H24.387ZM45,60v2H19V60H45Zm16-8H3a1,1,0,0,1-1-1V48H62v3A1,1,0,0,1,61,52Z"/><path class="cls-9" d="M45,22a1,1,0,0,0,1-1V17a1,1,0,0,0-1-1H42.586a10.787,10.787,0,0,0-.982-2.36l1.713-1.713a1,1,0,0,0,0-1.414l-2.83-2.83a1,1,0,0,0-1.414,0L37.36,9.4A10.787,10.787,0,0,0,35,8.414V6a1,1,0,0,0-1-1H30a1,1,0,0,0-1,1V8.414a10.787,10.787,0,0,0-2.36.982L24.927,7.683a1,1,0,0,0-1.414,0l-2.83,2.83a1,1,0,0,0,0,1.414L22.4,13.64A10.787,10.787,0,0,0,21.414,16H19a1,1,0,0,0-1,1v4a1,1,0,0,0,1,1h2.414a10.787,10.787,0,0,0,.982,2.36l-1.713,1.713a1,1,0,0,0,0,1.414l2.83,2.83a1,1,0,0,0,1.414,0L26.64,28.6a10.787,10.787,0,0,0,2.36.982V32a1,1,0,0,0,1,1h4a1,1,0,0,0,1-1V29.586a10.787,10.787,0,0,0,2.36-.982l1.713,1.713a1,1,0,0,0,1.414,0l2.83-2.83a1,1,0,0,0,0-1.414L41.6,24.36A10.787,10.787,0,0,0,42.586,22Zm-4.18-1.2a8.839,8.839,0,0,1-1.312,3.154,1,1,0,0,0,.125,1.262L41.2,26.78,39.78,28.2l-1.563-1.563a1,1,0,0,0-1.262-.125A8.839,8.839,0,0,1,33.8,27.82a1,1,0,0,0-.8.98V31H31V28.8a1,1,0,0,0-.8-.98,8.839,8.839,0,0,1-3.154-1.312,1,1,0,0,0-1.262.125L24.22,28.2,22.8,26.78l1.563-1.563a1,1,0,0,0,.125-1.262A8.839,8.839,0,0,1,23.18,20.8a1,1,0,0,0-.98-.8H20V18h2.2a1,1,0,0,0,.98-.8,8.839,8.839,0,0,1,1.312-3.154,1,1,0,0,0-.125-1.262L22.8,11.22,24.22,9.8l1.563,1.563a1,1,0,0,0,1.262.125A8.839,8.839,0,0,1,30.2,10.18,1,1,0,0,0,31,9.2V7h2V9.2a1,1,0,0,0,.8.98,8.839,8.839,0,0,1,3.154,1.312,1,1,0,0,0,1.262-.125L39.78,9.8,41.2,11.22l-1.563,1.563a1,1,0,0,0-.125,1.262A8.839,8.839,0,0,1,40.82,17.2a1,1,0,0,0,.98.8H44v2H41.8A1,1,0,0,0,40.82,20.8Z"/><path class="cls-9" d="M32,13a6,6,0,1,0,6,6A6.006,6.006,0,0,0,32,13Zm0,10a4,4,0,1,1,4-4A4,4,0,0,1,32,23Z"/><path class="cls-9" d="M18,35a1,1,0,0,0-1,1v7a1,1,0,0,0,1,1h7a1,1,0,0,0,1-1V36a1,1,0,0,0-1-1Zm4.586,2L19,40.586V37Zm-2.172,5L24,38.414V42Z"/><path class="cls-9" d="M29,35a1,1,0,0,0-1,1v7a1,1,0,0,0,1,1h7a1,1,0,0,0,1-1V36a1,1,0,0,0-1-1Zm4.586,2L30,40.586V37Zm-2.172,5L35,38.414V42Z"/><path class="cls-9" d="M40,35a1,1,0,0,0-1,1v7a1,1,0,0,0,1,1h4V42H41V35Z"/><path class="cls-9" d="M54.293,32.293,49,37.586l-1.293-1.293-1.414,1.414,2,2a1,1,0,0,0,1.414,0l6-6Z"/></g></svg>